<?xml version="1.0" standalone="no"?>
<!DOCTYPE svg PUBLIC "-//W3C//DTD SVG 20010904//EN"
 "http://www.w3.org/TR/2001/REC-SVG-20010904/DTD/svg10.dtd">
<svg version="1.0" xmlns="http://www.w3.org/2000/svg"
 width="800.000000pt" height="800.000000pt" viewBox="0 0 800.000000 800.000000"
 preserveAspectRatio="xMidYMid meet">
<metadata>
Created by potrace 1.14, written by Peter Selinger 2001-2017
</metadata>
<g transform="translate(0.000000,800.000000) scale(0.100000,-0.100000)"
fill="#000000" stroke="none">
<path d="M7990 4005 l0 -3995 -3997 -3 -3998 -2 4003 -3 4002 -2 0 4000 c0
2200 -2 4000 -5 4000 -3 0 -5 -1798 -5 -3995z"/>
<path d="M3680 7854 c-221 -20 -493 -60 -498 -75 -2 -5 -13 -9 -24 -9 -29 0
-352 -80 -358 -89 -3 -4 -63 -27 -135 -50 -71 -23 -143 -51 -160 -60 -16 -10
-73 -35 -125 -56 -52 -21 -97 -42 -100 -45 -3 -4 -50 -29 -105 -56 -55 -27
-104 -54 -110 -61 -5 -6 -37 -26 -70 -43 -33 -18 -69 -41 -81 -51 -11 -10 -24
-19 -28 -19 -5 0 -31 -16 -57 -35 -27 -19 -53 -35 -59 -35 -5 0 -13 -6 -17
-14 -4 -8 -32 -30 -62 -50 -30 -20 -70 -52 -90 -71 -19 -19 -39 -35 -44 -35
-31 0 -462 -422 -495 -485 -7 -14 -17 -25 -21 -25 -5 0 -26 -24 -47 -52 -21
-29 -51 -66 -67 -83 -16 -16 -32 -37 -36 -47 -3 -9 -18 -31 -33 -50 -16 -18
-48 -64 -73 -103 -24 -38 -50 -76 -56 -83 -6 -8 -25 -39 -41 -70 -17 -32 -35
-61 -42 -67 -7 -5 -34 -55 -60 -110 -27 -55 -52 -102 -56 -105 -5 -3 -27 -52
-50 -110 -23 -58 -45 -107 -50 -110 -4 -3 -30 -70 -56 -150 -27 -80 -52 -147
-56 -150 -9 -7 -88 -326 -88 -357 0 -13 -5 -23 -11 -23 -6 0 -9 -9 -6 -20 3
-11 2 -20 -3 -20 -4 0 -10 -17 -13 -37 -2 -21 -15 -114 -28 -208 -21 -153 -23
-207 -24 -530 0 -325 3 -376 24 -530 13 -93 26 -187 28 -207 3 -21 9 -38 15
-38 5 0 6 -5 2 -11 -3 -6 -2 -21 4 -32 6 -12 29 -102 52 -199 23 -97 44 -178
48 -180 4 -2 29 -69 56 -150 27 -81 52 -149 57 -150 4 -2 26 -50 49 -108 23
-58 45 -107 50 -110 4 -3 29 -50 56 -105 26 -55 52 -102 56 -103 5 -2 20 -25
33 -52 28 -56 142 -230 182 -278 16 -19 31 -42 35 -51 3 -10 19 -31 35 -47 15
-16 41 -47 57 -69 16 -22 39 -51 52 -65 12 -14 63 -70 112 -125 127 -141 386
-385 410 -385 4 0 24 -16 43 -35 20 -19 60 -51 90 -71 30 -20 58 -42 62 -50 4
-8 12 -14 17 -14 6 0 32 -16 59 -35 26 -19 52 -35 57 -35 4 0 17 -9 28 -19 12
-10 48 -33 81 -51 33 -17 65 -37 70 -43 6 -7 55 -34 110 -61 55 -27 102 -52
105 -56 3 -3 48 -24 100 -45 52 -21 109 -46 125 -56 17 -9 89 -37 160 -60 72
-23 132 -46 135 -50 6 -9 329 -89 358 -89 11 0 22 -4 24 -9 4 -11 122 -32 323
-58 200 -26 778 -26 980 0 200 26 319 47 323 58 2 5 13 9 24 9 29 0 352 80
358 89 3 4 64 27 135 50 72 23 144 51 160 60 17 10 73 35 125 56 52 21 97 42
100 45 3 4 50 29 105 56 55 27 105 54 110 61 6 6 37 26 70 43 33 18 69 41 81
51 11 10 24 19 28 19 5 0 30 16 56 35 26 19 52 35 58 35 6 0 15 6 19 14 4 8
32 30 62 50 30 20 70 52 90 71 19 19 39 35 43 35 31 0 446 405 490 478 11 17
24 32 28 32 5 0 25 24 46 53 21 28 51 65 67 82 16 16 32 37 36 47 3 9 18 31
33 50 16 18 48 65 73 103 24 39 50 76 56 83 6 8 25 39 41 70 17 32 35 62 42
67 7 6 34 55 60 110 27 55 52 102 56 105 5 3 27 52 50 110 23 58 45 107 50
110 4 3 30 70 56 150 27 80 52 147 56 150 9 7 88 326 88 358 0 12 5 22 11 22
6 0 9 9 6 20 -3 11 -2 20 3 20 4 0 10 17 13 38 2 20 15 114 28 207 21 153 23
207 23 530 0 323 -2 377 -23 530 -13 94 -26 187 -28 208 -3 20 -9 37 -13 37
-5 0 -6 9 -3 20 3 11 0 20 -6 20 -6 0 -11 10 -11 23 0 31 -79 350 -88 357 -4
3 -29 70 -56 150 -26 80 -52 147 -56 150 -5 3 -27 52 -50 110 -23 58 -45 107
-50 110 -4 3 -29 50 -56 105 -26 55 -53 105 -60 110 -7 6 -25 35 -42 67 -16
31 -35 62 -41 70 -6 7 -32 45 -56 83 -25 39 -57 85 -73 103 -15 19 -30 41 -33
50 -4 10 -20 31 -36 47 -16 17 -46 54 -67 83 -21 28 -41 52 -46 52 -4 0 -17
15 -28 33 -44 72 -459 477 -490 477 -4 0 -24 16 -43 35 -20 19 -60 51 -90 71
-30 20 -58 42 -62 50 -4 8 -12 14 -17 14 -6 0 -32 16 -59 35 -26 19 -52 35
-57 35 -4 0 -17 9 -28 19 -12 10 -48 33 -81 51 -33 17 -64 37 -70 43 -5 7 -55
34 -110 61 -55 27 -102 52 -105 56 -3 3 -48 24 -100 45 -52 21 -108 46 -125
56 -16 9 -88 37 -160 60 -71 23 -132 46 -135 50 -6 9 -329 89 -358 89 -11 0
-22 4 -24 9 -3 10 -125 32 -318 57 -119 16 -693 28 -810 18z"/>
</g>
</svg>
